<svg width="1299" height="680" viewBox="0 0 1299 680" fill="none" xmlns="http://www.w3.org/2000/svg">
<g clip-path="url(#clip0_654_269)">
<rect width="1299" height="680" rx="10" fill="#A9DEAB"/>
<path d="M1146.66 268.84C1306.19 122.756 1550.77 -85.66 1687.76 -178.929C1452.17 -86.2878 1218.4 72.6451 1017.06 289.963C863.859 455.779 752.658 644.339 675.016 830.453C796.268 633.523 955.293 443.386 1146.66 268.84Z" fill="black" fill-opacity="0.05"/>
<path d="M2137.57 -254.979C2137.57 -254.979 2137.15 -254.561 2136.73 -254.981C1842.92 -174.515 1536.65 -19.4318 1255.65 206.973C974.649 433.378 758.283 698.46 618.237 967.855C761.785 792.39 924.21 622.406 1103.42 460.834C856.45 729.643 674.517 1026.65 564.281 1320.83C758.365 1018.39 993.136 724.825 1268.19 449.771C1542.41 175.555 1835.55 -59.6361 2137.15 -253.722C2137.15 -254.561 2137.57 -254.979 2137.57 -254.979Z" fill="black" fill-opacity="0.05"/>
</g>
<defs>
<clipPath id="clip0_654_269">
<rect width="1299" height="680" fill="white"/>
</clipPath>
</defs>
</svg>
